<svg width="346" height="201" viewBox="0 0 346 201" fill="none" xmlns="http://www.w3.org/2000/svg">
<path d="M220.49 69.3881C221.76 64.7555 226.544 62.0289 231.177 63.2981L264.729 72.4904C269.362 73.7596 272.088 78.544 270.819 83.1766L261.627 116.729C260.357 121.362 255.573 124.088 250.941 122.819L217.388 113.627C212.756 112.357 210.029 107.573 211.298 102.94L220.49 69.3881Z" fill="#3680FF"/>
<path d="M229.223 103.343L235.535 105.072L238.249 95.166L247.65 97.7417L249.117 92.3891L239.716 89.8134L240.963 85.2602L251.427 88.1271L252.894 82.7745L236.118 78.1783L229.223 103.343Z" fill="#272727"/>
<path d="M150.116 84.0275C151.033 81.6722 154.136 81.1548 155.768 83.0851L161.153 89.4555C162.233 90.7331 164.093 91.0121 165.501 90.1077L172.519 85.5981C174.645 84.2317 177.459 85.6367 177.645 88.1575L178.258 96.477C178.38 98.1454 179.721 99.4643 181.391 99.5599L189.72 100.037C192.243 100.181 193.694 102.972 192.362 105.12L187.968 112.211C187.087 113.633 187.396 115.488 188.691 116.547L195.149 121.828C197.105 123.428 196.639 126.539 194.299 127.494L186.576 130.648C185.027 131.28 184.187 132.963 184.612 134.581L186.732 142.649C187.375 145.094 185.169 147.336 182.714 146.733L174.612 144.745C172.988 144.347 171.319 145.214 170.712 146.773L167.685 154.546C166.768 156.902 163.665 157.419 162.033 155.489L156.648 149.118C155.568 147.841 153.708 147.562 152.3 148.466L145.282 152.976C143.156 154.342 140.342 152.937 140.156 150.416L139.543 142.097C139.421 140.429 138.08 139.11 136.41 139.014L128.081 138.537C125.558 138.393 124.107 135.602 125.439 133.454L129.833 126.363C130.714 124.941 130.405 123.086 129.11 122.027L122.652 116.746C120.696 115.146 121.162 112.035 123.502 111.08L131.225 107.926C132.774 107.294 133.614 105.611 133.189 103.993L131.069 95.9249C130.426 93.4803 132.632 91.2381 135.087 91.8405L143.189 93.8287C144.813 94.2274 146.482 93.3599 147.089 91.801L150.116 84.0275Z" fill="#6040D2"/>
<path fill-rule="evenodd" clip-rule="evenodd" d="M164.192 99.0147C165.457 99.0438 166.459 100.093 166.43 101.358L166.225 110.263C166.196 111.528 165.147 112.531 163.882 112.501C162.616 112.472 161.614 111.423 161.643 110.158L161.848 101.253C161.877 99.9878 162.926 98.9857 164.192 99.0147Z" fill="black"/>
<path fill-rule="evenodd" clip-rule="evenodd" d="M173.096 99.2194C174.361 99.2485 175.364 100.298 175.334 101.563L175.13 110.468C175.101 111.733 174.051 112.735 172.786 112.706C171.521 112.677 170.519 111.628 170.548 110.362L170.752 101.458C170.782 100.192 171.831 99.1903 173.096 99.2194Z" fill="black"/>
<path fill-rule="evenodd" clip-rule="evenodd" d="M146.783 105.904C148.047 105.832 149.129 106.799 149.2 108.063C149.48 113.016 150.956 116.006 152.859 117.806C154.777 119.622 157.438 120.52 160.652 120.661C167.183 120.948 175.112 118.06 180.49 115.176C181.605 114.578 182.994 114.997 183.593 116.113C184.191 117.228 183.771 118.617 182.656 119.215C176.983 122.257 168.186 125.58 160.451 125.24C156.532 125.068 152.675 123.943 149.709 121.135C146.725 118.313 144.949 114.08 144.624 108.321C144.553 107.057 145.52 105.975 146.783 105.904Z" fill="black"/>
<path d="M175 150.89C175 140.457 183.457 132 193.89 132V132C204.323 132 212.78 140.457 212.78 150.89V170.918C212.78 181.35 204.323 189.808 193.89 189.808V189.808C183.457 189.808 175 181.35 175 170.918V150.89Z" fill="#015CE8"/>
<path fill-rule="evenodd" clip-rule="evenodd" d="M188.655 142.697C190.038 142.697 191.159 143.818 191.159 145.2V153.849C191.159 155.231 190.038 156.352 188.655 156.352C187.273 156.352 186.152 155.231 186.152 153.849V145.2C186.152 143.818 187.273 142.697 188.655 142.697Z" fill="black"/>
<path fill-rule="evenodd" clip-rule="evenodd" d="M198.669 142.697C200.052 142.697 201.173 143.818 201.173 145.2V153.849C201.173 155.231 200.052 156.352 198.669 156.352C197.287 156.352 196.166 155.231 196.166 153.849V145.2C196.166 143.818 197.287 142.697 198.669 142.697Z" fill="black"/>
<path fill-rule="evenodd" clip-rule="evenodd" d="M179.407 156.859C180.509 156.025 182.079 156.242 182.914 157.345C184.612 159.589 187.761 162.219 191.562 162.969C195.145 163.675 199.812 162.811 205.022 157.159C205.959 156.142 207.543 156.078 208.559 157.015C209.576 157.952 209.641 159.536 208.703 160.552C202.515 167.266 196.159 168.978 190.593 167.881C185.246 166.827 181.122 163.274 178.921 160.366C178.087 159.264 178.304 157.694 179.407 156.859Z" fill="black"/>
<path d="M332.842 109.64C335.518 99.6536 329.592 89.3886 319.605 86.7127L308.903 83.8452C298.917 81.1693 288.652 87.0958 285.976 97.0824C284.813 101.423 285.275 105.815 286.989 109.615C283.605 112.049 281.008 115.622 279.845 119.962C277.169 129.949 283.096 140.214 293.082 142.89L303.784 145.757C313.771 148.433 324.036 142.507 326.712 132.52C327.875 128.18 327.413 123.787 325.699 119.987C329.083 117.554 331.68 113.98 332.842 109.64Z" fill="#06C16A"/>
<path fill-rule="evenodd" clip-rule="evenodd" d="M300.944 92.4692C302.072 92.7414 302.766 93.8766 302.493 95.0047L300.578 102.944C300.305 104.072 299.17 104.766 298.042 104.494C296.914 104.222 296.22 103.086 296.492 101.958L298.408 94.0189C298.68 92.8908 299.816 92.1969 300.944 92.4692Z" fill="black"/>
<path fill-rule="evenodd" clip-rule="evenodd" d="M308.883 94.3851C310.011 94.6573 310.705 95.7925 310.433 96.9206L308.517 104.86C308.245 105.988 307.109 106.682 305.981 106.41C304.853 106.137 304.159 105.002 304.432 103.874L306.347 95.9349C306.62 94.8067 307.755 94.1129 308.883 94.3851Z" fill="black"/>
<path fill-rule="evenodd" clip-rule="evenodd" d="M323.194 105.507C324.062 106.276 324.143 107.604 323.374 108.473C318.743 113.705 312.653 115.384 307.116 115.423C301.617 115.463 296.49 113.897 293.388 112.415C292.34 111.914 291.897 110.66 292.397 109.613C292.898 108.566 294.152 108.123 295.199 108.623C297.828 109.879 302.328 111.255 307.086 111.221C311.808 111.187 316.607 109.778 320.227 105.688C320.997 104.819 322.325 104.738 323.194 105.507Z" fill="black"/>
<path d="M339.129 38.6878C342.657 27.6752 336.59 15.8877 325.577 12.3597L306.938 6.38815C295.925 2.86008 284.138 8.92744 280.609 19.94L273.388 42.4808C269.86 53.4934 275.927 65.2809 286.94 68.8089L305.579 74.7804C316.592 78.3085 328.38 72.2412 331.908 61.2286L339.129 38.6878Z" fill="#3A6878"/>
<path fill-rule="evenodd" clip-rule="evenodd" d="M298.735 32.2076C297.377 32.4663 296.485 33.7771 296.744 35.1353L298.565 44.6941C298.823 46.0523 300.134 46.9436 301.492 46.6849C302.851 46.4262 303.742 45.1154 303.483 43.7572L301.662 34.1984C301.404 32.8402 300.093 31.9489 298.735 32.2076Z" fill="black"/>
<path fill-rule="evenodd" clip-rule="evenodd" d="M289.176 34.0283C287.818 34.287 286.927 35.5978 287.185 36.956L289.006 46.5148C289.265 47.873 290.576 48.7643 291.934 48.5056C293.292 48.2469 294.183 46.9361 293.925 45.5779L292.104 36.0192C291.845 34.6609 290.534 33.7696 289.176 34.0283Z" fill="black"/>
<path fill-rule="evenodd" clip-rule="evenodd" d="M323.291 28.5293C321.912 28.4239 320.709 29.4561 320.604 30.8347C319.571 44.351 313.769 50.7216 307.354 53.5671C300.694 56.5217 292.847 55.9059 287.631 54.3448C286.307 53.9483 284.911 54.7007 284.515 56.0253C284.119 57.3499 284.871 58.745 286.195 59.1415C292.132 60.9184 301.286 61.7364 309.385 58.144C317.729 54.4426 324.445 46.2853 325.596 31.2163C325.702 29.8377 324.67 28.6347 323.291 28.5293Z" fill="black"/>
<path d="M276.873 126.591C279.62 124.609 283.502 125.872 284.557 129.091L289.664 144.663C289.99 145.657 290.62 146.525 291.465 147.143L304.691 156.819C307.425 158.82 307.424 162.902 304.688 164.9L291.456 174.569C290.611 175.187 289.981 176.054 289.654 177.048L284.538 192.617C283.481 195.835 279.598 197.095 276.852 195.112L263.568 185.515C262.719 184.902 261.7 184.571 260.653 184.567L244.265 184.513C240.878 184.502 238.479 181.198 239.517 177.974L244.539 162.374C244.86 161.378 244.86 160.306 244.54 159.309L239.528 143.707C238.492 140.481 240.892 137.18 244.28 137.17L260.667 137.126C261.714 137.123 262.734 136.792 263.583 136.18L276.873 126.591Z" fill="#FFF100"/>
<path fill-rule="evenodd" clip-rule="evenodd" d="M272.72 137.974C273.776 138.477 274.224 139.741 273.721 140.797L270.179 148.227C269.676 149.283 268.412 149.731 267.356 149.228C266.3 148.724 265.852 147.46 266.356 146.405L269.897 138.974C270.4 137.919 271.664 137.471 272.72 137.974Z" fill="black"/>
<path fill-rule="evenodd" clip-rule="evenodd" d="M280.15 141.516C281.206 142.019 281.654 143.283 281.151 144.339L277.609 151.769C277.106 152.825 275.842 153.273 274.786 152.77C273.73 152.266 273.282 151.002 273.786 149.947L277.327 142.516C277.831 141.461 279.094 141.013 280.15 141.516Z" fill="black"/>
<path fill-rule="evenodd" clip-rule="evenodd" d="M258.858 146.156C259.976 145.814 261.16 146.444 261.502 147.562C262.289 150.138 264.188 153.588 267.181 155.655C270.004 157.603 274.067 158.516 279.843 155.684C280.893 155.169 282.162 155.603 282.677 156.653C283.191 157.703 282.757 158.972 281.707 159.487C274.664 162.94 268.957 162.026 264.775 159.14C260.763 156.372 258.422 151.977 257.451 148.8C257.11 147.682 257.739 146.498 258.858 146.156Z" fill="black"/>
<path fill-rule="evenodd" clip-rule="evenodd" d="M227.197 18.0128C235.937 26.3415 236.304 40.2142 228.017 48.9983L215.638 62.12C199.311 79.4254 171.994 78.5937 156.644 61.1864L148.172 69.6381C139.623 78.1655 125.815 78.1138 117.33 69.5226C108.845 60.9313 108.897 47.0538 117.445 38.5264L128.729 27.2696C145.191 10.8479 171.736 12.0189 186.793 28.9847L196.366 18.8374C204.653 10.0533 218.456 9.68413 227.197 18.0128Z" fill="#FB6358"/>
<path fill-rule="evenodd" clip-rule="evenodd" d="M188.869 35.6855C190.227 35.9443 191.119 37.255 190.86 38.6132L189.039 48.172C188.78 49.5302 187.47 50.4216 186.111 50.1629C184.753 49.9041 183.862 48.5934 184.121 47.2352L185.941 37.6764C186.2 36.3182 187.511 35.4268 188.869 35.6855Z" fill="black"/>
<path fill-rule="evenodd" clip-rule="evenodd" d="M198.428 37.5063C199.786 37.7651 200.677 39.0758 200.419 40.434L198.598 49.9928C198.339 51.351 197.028 52.2424 195.67 51.9837C194.312 51.7249 193.421 50.4142 193.679 49.056L195.5 39.4972C195.759 38.139 197.07 37.2476 198.428 37.5063Z" fill="black"/>
<path fill-rule="evenodd" clip-rule="evenodd" d="M164.313 32.0074C165.691 31.902 166.894 32.9342 167 34.3128C168.033 47.8291 173.835 54.1997 180.249 57.0452C186.91 59.9998 194.757 59.384 199.973 57.8229C201.297 57.4264 202.692 58.1788 203.089 59.5034C203.485 60.828 202.733 62.2231 201.408 62.6196C195.472 64.3965 186.318 65.2145 178.219 61.6221C169.875 57.9206 163.159 49.7634 162.007 34.6944C161.902 33.3158 162.934 32.1128 164.313 32.0074Z" fill="black"/>
<path d="M1.43008 60.2205H6.19703V50.7299H16.1758V60.2205H20.9746V37.3164H16.1758V46.807H6.19703V37.3164H1.43008V60.2205Z" fill="white"/>
<path d="M24.8517 60.2205H40.3284V56.2977H29.6186V50.7299H39.5021V46.807H29.6186V41.2392H40.2966V37.3164H24.8517V60.2205Z" fill="white"/>
<path d="M44.0148 60.2205H58.697V56.2977H48.7818V37.3164H44.0148V60.2205Z" fill="white"/>
<path d="M61.7797 60.2205H76.4619V56.2977H66.5466V37.3164H61.7797V60.2205Z" fill="white"/>
<path d="M99.6928 48.7684C99.6928 41.2866 95.0371 37 88.9513 37C82.8178 37 78.178 41.2866 78.178 48.7684C78.178 56.2186 82.8178 60.5369 88.9513 60.5369C95.0371 60.5369 99.6928 56.2503 99.6928 48.7684ZM83.0403 48.7684C83.0403 43.8649 85.3761 41.2234 88.9513 41.2075C92.4947 41.2234 94.8464 43.8649 94.8305 48.7684C94.8464 53.6562 92.4947 56.3135 88.9513 56.3294C85.3761 56.3135 83.0403 53.6562 83.0403 48.7684Z" fill="white"/>
<path d="M106.684 57.8795H102.172L100.583 66.8957H103.951L106.684 57.8795Z" fill="white"/>
<path d="M6.57839 93.4679H11.25L15.6674 78.3461H15.8581L20.2436 93.4679H24.9153L31.4936 70.5637H26.2818L22.4047 86.603H22.214L17.9873 70.5637H13.5064L9.27966 86.5713H9.08898L5.21186 70.5637H0L6.57839 93.4679Z" fill="white"/>
<path d="M33.9407 93.4679H49.4174V89.5451H38.7076V83.9772H48.5911V80.0544H38.7076V74.4865H49.3856V70.5637H33.9407V93.4679Z" fill="white"/>
<path d="M64.4492 93.4679L66.1811 88.1848H74.5074L76.2394 93.4679H81.3559L73.411 70.5637H67.2775L59.3008 93.4679H64.4492ZM67.3888 84.4834L70.2648 75.7203H70.4237L73.2998 84.4834H67.3888Z" fill="white"/>
<path d="M83.9619 93.4679H88.7288V85.3376H92.3676L96.7691 93.4679H102.044L97.1504 84.5625C99.7722 83.4394 101.218 81.1617 101.218 78.0297C101.218 73.49 98.215 70.5637 92.9873 70.5637H83.9619V93.4679ZM88.7288 81.478V74.4549H92.0975C94.9259 74.4707 96.3083 75.7203 96.2924 78.0297C96.3083 80.3233 94.9259 81.478 92.0975 81.478H88.7288Z" fill="white"/>
<path d="M104.523 93.4679H120V89.5451H109.29V83.9772H119.174V80.0544H109.29V74.4865H119.968V70.5637H104.523V93.4679Z" fill="white"/>
<path d="M1.43008 126.715H6.19703V117.225H15.6038V113.302H6.19703V107.734H16.589V103.811H1.43008V126.715Z" fill="white"/>
<path d="M19.7352 126.715H34.4174V122.792H24.5021V103.811H19.7352V126.715Z" fill="white"/>
<path d="M42.267 103.811H37.5V126.715H42.267V103.811Z" fill="white"/>
<path d="M46.1441 126.715H50.911V119.249H55.0424C60.3496 119.249 63.4004 116.102 63.4004 111.53C63.4004 107.022 60.3972 103.811 55.1695 103.811H46.1441V126.715ZM50.911 115.421V107.702H54.2797C57.1081 107.718 58.4905 109.252 58.4746 111.53C58.4905 113.84 57.1081 115.421 54.2797 115.421H50.911Z" fill="white"/>
<path d="M71.9174 103.811H67.0233L67.4364 119.85H71.5042L71.9174 103.811ZM66.8326 124.343C66.8008 125.814 68.0085 127 69.5021 127C70.9163 127 72.1398 125.814 72.1398 124.343C72.1398 122.887 70.9163 121.701 69.5021 121.717C68.0085 121.701 66.8008 122.887 66.8326 124.343Z" fill="white"/>
<path d="M14.7402 142.928L13.163 144.494L17.3689 148.649H0V150.93H17.3689L13.163 155.086L14.7402 156.633L21.6527 149.79L14.7402 142.928Z" fill="white"/>
<path d="M38.6516 147.296H41.6114C41.2219 144.542 38.7782 142.599 35.5946 142.599C31.8754 142.599 29.0131 145.267 29.0131 149.809C29.0131 154.236 31.7002 156.981 35.653 156.981C39.2066 156.981 41.7477 154.738 41.7477 151.066V149.326H35.8672V151.51H38.9242C38.8853 153.269 37.6878 154.4 35.6724 154.41C33.4234 154.4 31.9923 152.728 31.9923 149.771C31.9923 146.832 33.4721 145.18 35.653 145.17C37.1913 145.18 38.2525 145.982 38.6516 147.296Z" fill="white"/>
<path d="M48.5823 157C51.7854 156.99 53.7715 154.816 53.7813 151.568C53.7715 148.331 51.7854 146.156 48.5823 146.156C45.3889 146.156 43.393 148.331 43.4028 151.568C43.393 154.816 45.3889 156.99 48.5823 157ZM46.3236 151.568C46.3236 149.722 47.0927 148.34 48.6018 148.34C50.0719 148.34 50.8508 149.722 50.841 151.568C50.8508 153.405 50.0719 154.767 48.6018 154.777C47.0927 154.767 46.3236 153.405 46.3236 151.568Z" fill="white"/>
<path d="M65.7565 146.291H63.7703V143.778H60.8885V146.291H59.4281V148.437H60.8885V153.965C60.869 156.005 62.2905 156.932 64.374 156.923C65.0847 156.932 65.6007 156.874 65.9122 156.826V154.564C65.5618 154.593 65.0555 154.622 64.7634 154.622C64.1792 154.603 63.7606 154.4 63.7703 153.559V148.437H65.7565V146.291Z" fill="white"/>
<path d="M72.2017 157C75.4048 156.99 77.3909 154.816 77.4006 151.568C77.3909 148.331 75.4048 146.156 72.2017 146.156C69.0083 146.156 67.0124 148.331 67.0221 151.568C67.0124 154.816 69.0083 156.99 72.2017 157ZM69.9429 151.568C69.9429 149.722 70.7121 148.34 72.2211 148.34C73.6913 148.34 74.4701 149.722 74.4604 151.568C74.4701 153.405 73.6913 154.767 72.2211 154.777C70.7121 154.767 69.9429 153.405 69.9429 151.568Z" fill="white"/>
<path d="M93.2313 147.296H96.191C95.8015 144.542 93.3578 142.599 90.1742 142.599C86.4551 142.599 83.5927 145.267 83.5927 149.809C83.5927 154.236 86.2798 156.981 90.2326 156.981C93.7862 156.981 96.3273 154.738 96.3273 151.066V149.326H90.4468V151.51H93.5039C93.4649 153.269 92.2674 154.4 90.2521 154.41C88.0031 154.4 86.5719 152.728 86.5719 149.771C86.5719 146.832 88.0517 145.18 90.2326 145.17C91.7709 145.18 92.8321 145.982 93.2313 147.296Z" fill="white"/>
<path d="M99.0728 156.787H101.955V146.291H99.0728V156.787ZM98.9365 143.469C98.9365 144.262 99.6472 144.919 100.514 144.919C101.371 144.919 102.081 144.262 102.071 143.469C102.081 142.657 101.371 142.01 100.514 142C99.6472 142.01 98.9365 142.657 98.9365 143.469Z" fill="white"/>
<path d="M109.763 146.291H107.777V143.778H104.895V146.291H103.435V148.437H104.895V153.965C104.875 156.005 106.297 156.932 108.38 156.923C109.091 156.932 109.607 156.874 109.919 156.826V154.564C109.568 154.593 109.062 154.622 108.77 154.622C108.186 154.603 107.767 154.4 107.777 153.559V148.437H109.763V146.291Z" fill="white"/>
<path d="M114.689 150.718C114.689 149.336 115.536 148.534 116.753 148.534C117.961 148.534 118.662 149.297 118.662 150.602V156.787H121.543V150.099C121.543 147.635 120.093 146.156 117.883 146.156C116.276 146.156 115.215 146.9 114.728 148.128H114.611V142.793H111.807V156.787H114.689V150.718Z" fill="white"/>
<path d="M130.539 152.322C130.539 153.753 129.546 154.497 128.495 154.506C127.365 154.497 126.645 153.724 126.645 152.477V146.291H123.763V152.979C123.763 155.434 125.214 156.923 127.326 156.923C128.923 156.923 130.062 156.111 130.539 154.893H130.656V156.787H133.421V146.291H130.539V152.322Z" fill="white"/>
<path d="M135.719 156.787H138.562V155.106H138.679C139.097 155.976 139.973 156.961 141.697 156.961C144.111 156.961 145.99 155.057 146 151.549C145.99 147.954 144.033 146.156 141.697 146.156C139.915 146.156 139.078 147.2 138.679 148.05H138.601V142.793H135.719V156.787ZM138.542 151.53C138.533 149.645 139.35 148.437 140.782 148.437C142.271 148.437 143.05 149.703 143.04 151.53C143.05 153.385 142.252 154.671 140.782 154.68C139.36 154.671 138.533 153.424 138.542 151.53Z" fill="white"/>
</svg>
