<svg width="24" height="24" viewBox="0 0 24 24" fill="none" xmlns="http://www.w3.org/2000/svg">
<path d="M10 18V17.8927C10 17.0977 9.50393 16.4055 8.8827 15.9095C7.73521 14.9933 7 13.5825 7 12C7 9.23858 9.23858 7 12 7C14.7614 7 17 9.23858 17 12C17 13.5825 16.2648 14.9933 15.1173 15.9095C14.4961 16.4055 14 17.0977 14 17.8927V18M10 18V20C10 20.5523 10.4477 21 11 21H13C13.5523 21 14 20.5523 14 20V18M10 18H14M20 12H21M4 12H3M12 4V3M17.6569 6.34315L18.364 5.63604M6.34315 6.34315L5.63604 5.63604M12 15V13" stroke="black" stroke-width="2" stroke-linecap="round" stroke-linejoin="round"/>
</svg>
