<svg width="24" height="24" viewBox="0 0 24 24" fill="none" xmlns="http://www.w3.org/2000/svg">
<path fill-rule="evenodd" clip-rule="evenodd" d="M2.64645 4.64645C2.84171 4.45118 3.15829 4.45118 3.35355 4.64645L19.3536 20.6464C19.5488 20.8417 19.5488 21.1583 19.3536 21.3536C19.1583 21.5488 18.8417 21.5488 18.6464 21.3536L15.1579 17.865C13.0383 18.7271 10.8441 18.7117 8.72547 17.8167C6.52442 16.8868 4.43682 15.0223 2.58558 12.2797C2.47147 12.1107 2.47147 11.8893 2.58558 11.7203C3.51864 10.3379 4.5105 9.18036 5.54573 8.25283L2.64645 5.35355C2.45118 5.15829 2.45118 4.84171 2.64645 4.64645ZM6.25398 8.96108C5.34412 9.7696 4.45612 10.7811 3.60631 12C5.33391 14.478 7.21504 16.093 9.11464 16.8955C10.8542 17.6304 12.634 17.6956 14.382 17.0891L6.25398 8.96108ZM14.7194 7.03646C12.7072 6.23677 10.6408 6.32941 8.63207 7.32609C8.38471 7.44883 8.08468 7.3478 7.96194 7.10044C7.8392 6.85307 7.94023 6.55304 8.18759 6.4303C10.443 5.31121 12.8051 5.19959 15.0887 6.10716C17.3581 7.00908 19.5114 8.9009 21.4144 11.7203C21.5285 11.8893 21.5285 12.1107 21.4144 12.2797C20.3662 13.8327 19.2437 15.102 18.0689 16.0802C17.8567 16.2569 17.5414 16.2281 17.3647 16.0159C17.188 15.8036 17.2168 15.4884 17.429 15.3117C18.4496 14.4619 19.4454 13.3601 20.3937 12C18.6156 9.44958 16.6752 7.81376 14.7194 7.03646ZM12 9.5C11.7526 9.5 11.5144 9.53579 11.2899 9.60215C11.0251 9.68042 10.747 9.5292 10.6687 9.26438C10.5904 8.99957 10.7416 8.72144 11.0065 8.64316C11.322 8.54989 11.6556 8.5 12 8.5C13.933 8.5 15.5 10.067 15.5 12C15.5 12.3542 15.4472 12.697 15.3488 13.0205C15.2683 13.2847 14.989 13.4336 14.7248 13.3532C14.4606 13.2728 14.3117 12.9935 14.3921 12.7293C14.4621 12.4992 14.5 12.2545 14.5 12C14.5 10.6193 13.3807 9.5 12 9.5Z" fill="#FCFCFC"/>
</svg>
