<svg width="24" height="24" viewBox="0 0 24 24" fill="none" xmlns="http://www.w3.org/2000/svg">
<path fill-rule="evenodd" clip-rule="evenodd" d="M3.6063 12C6.20955 15.7344 9.15083 17.5 12 17.5C14.8492 17.5 17.7904 15.7344 20.3937 12C17.7904 8.26559 14.8492 6.5 12 6.5C9.15083 6.5 6.20955 8.26559 3.6063 12ZM12 5.5C15.3806 5.5 18.6645 7.6463 21.4144 11.7203C21.5285 11.8893 21.5285 12.1107 21.4144 12.2797C18.6645 16.3537 15.3806 18.5 12 18.5C8.6194 18.5 5.3355 16.3537 2.58558 12.2797C2.47147 12.1107 2.47147 11.8893 2.58558 11.7203C5.3355 7.6463 8.6194 5.5 12 5.5ZM12 9.5C10.6193 9.5 9.5 10.6193 9.5 12C9.5 13.3807 10.6193 14.5 12 14.5C13.3807 14.5 14.5 13.3807 14.5 12C14.5 10.6193 13.3807 9.5 12 9.5ZM8.5 12C8.5 10.067 10.067 8.5 12 8.5C13.933 8.5 15.5 10.067 15.5 12C15.5 13.933 13.933 15.5 12 15.5C10.067 15.5 8.5 13.933 8.5 12Z" fill="#FCFCFC"/>
</svg>
