<svg width="24" height="24" viewBox="0 0 24 24" fill="none" xmlns="http://www.w3.org/2000/svg">
<path fill-rule="evenodd" clip-rule="evenodd" d="M4.93162 12C7.12383 15.1599 9.6007 16.6538 12 16.6538C14.3993 16.6538 16.8762 15.1599 19.0684 12C16.8762 8.84011 14.3993 7.34615 12 7.34615C9.6007 7.34615 7.12383 8.84011 4.93162 12ZM12 6.5C14.8468 6.5 17.6122 8.3161 19.9279 11.7633C20.024 11.9063 20.024 12.0937 19.9279 12.2367C17.6122 15.6839 14.8468 17.5 12 17.5C9.15318 17.5 6.38779 15.6839 4.07206 12.2367C3.97598 12.0937 3.97598 11.9063 4.07206 11.7633C6.38779 8.3161 9.15318 6.5 12 6.5ZM12 9.88462C10.8373 9.88462 9.89474 10.8317 9.89474 12C9.89474 13.1683 10.8373 14.1154 12 14.1154C13.1627 14.1154 14.1053 13.1683 14.1053 12C14.1053 10.8317 13.1627 9.88462 12 9.88462ZM9.05263 12C9.05263 10.3644 10.3722 9.03846 12 9.03846C13.6278 9.03846 14.9474 10.3644 14.9474 12C14.9474 13.6356 13.6278 14.9615 12 14.9615C10.3722 14.9615 9.05263 13.6356 9.05263 12Z" fill="#3D3D3D"/>
</svg>
