<svg width="800" height="400" viewBox="0 0 800 400" fill="none" xmlns="http://www.w3.org/2000/svg">
<mask id="mask0_510_1021" style="mask-type:alpha" maskUnits="userSpaceOnUse" x="0" y="0" width="800" height="400">
<rect width="800" height="400" fill="#D9D9D9"/>
</mask>
<g mask="url(#mask0_510_1021)">
<rect y="1.20099" width="800" height="400" fill="#121212"/>
<path d="M544.075 131.57C547.048 120.716 558.257 114.328 569.111 117.301L647.721 138.838C658.575 141.812 664.963 153.021 661.989 163.875L640.453 242.485C637.479 253.339 626.27 259.727 615.416 256.753L536.806 235.216C525.952 232.243 519.564 221.033 522.538 210.18L544.075 131.57Z" fill="#3680FF"/>
<path d="M564.535 211.122L579.323 215.173L585.682 191.965L607.708 197.999L611.144 185.459L589.117 179.424L592.04 168.756L616.557 175.473L619.993 162.933L580.688 152.164L564.535 211.122Z" fill="#272727"/>
<path d="M379.194 165.869C381.343 160.35 388.612 159.138 392.435 163.66L405.053 178.586C407.584 181.579 411.941 182.233 415.239 180.114L431.681 169.548C436.663 166.347 443.256 169.639 443.691 175.545L445.127 195.036C445.415 198.945 448.556 202.035 452.469 202.259L471.981 203.376C477.894 203.715 481.293 210.253 478.173 215.287L467.878 231.9C465.813 235.232 466.538 239.578 469.572 242.059L484.701 254.432C489.285 258.181 488.192 265.468 482.71 267.707L464.616 275.096C460.987 276.577 459.019 280.519 460.015 284.31L464.982 303.213C466.487 308.941 461.319 314.194 455.568 312.782L436.587 308.124C432.78 307.19 428.871 309.223 427.448 312.875L420.356 331.087C418.207 336.606 410.939 337.818 407.115 333.296L394.497 318.37C391.966 315.377 387.609 314.723 384.312 316.842L367.869 327.408C362.887 330.609 356.294 327.317 355.859 321.411L354.423 301.92C354.136 298.011 350.995 294.921 347.081 294.697L327.569 293.58C321.657 293.241 318.258 286.703 321.377 281.669L331.673 265.056C333.737 261.724 333.013 257.378 329.978 254.897L314.849 242.524C310.265 238.775 311.358 231.488 316.841 229.249L334.935 221.86C338.563 220.379 340.532 216.436 339.535 212.646L334.568 193.743C333.063 188.015 338.231 182.762 343.982 184.174L362.964 188.832C366.77 189.766 370.68 187.733 372.102 184.081L379.194 165.869Z" fill="#6040D2"/>
<path fill-rule="evenodd" clip-rule="evenodd" d="M412.172 200.982C415.136 201.05 417.484 203.508 417.416 206.473L416.937 227.336C416.868 230.3 414.41 232.648 411.446 232.58C408.481 232.512 406.133 230.054 406.201 227.089L406.681 206.226C406.749 203.262 409.207 200.914 412.172 200.982Z" fill="black"/>
<path fill-rule="evenodd" clip-rule="evenodd" d="M433.034 201.462C435.999 201.53 438.347 203.988 438.278 206.953L437.799 227.815C437.731 230.78 435.273 233.128 432.308 233.06C429.344 232.992 426.996 230.533 427.064 227.569L427.543 206.706C427.611 203.741 430.07 201.393 433.034 201.462Z" fill="black"/>
<path fill-rule="evenodd" clip-rule="evenodd" d="M371.386 217.122C374.347 216.955 376.882 219.22 377.049 222.181C377.703 233.786 381.163 240.792 385.62 245.009C390.115 249.263 396.349 251.367 403.88 251.698C419.181 252.37 437.758 245.604 450.357 238.847C452.971 237.445 456.225 238.428 457.626 241.041C459.028 243.654 458.045 246.908 455.432 248.31C442.142 255.437 421.53 263.222 403.408 262.426C394.227 262.022 385.191 259.386 378.239 252.809C371.25 246.195 367.088 236.279 366.328 222.785C366.161 219.824 368.426 217.289 371.386 217.122Z" fill="black"/>
<path d="M437.495 322.521C437.495 298.078 457.309 278.263 481.752 278.263V278.263C506.195 278.263 526.009 298.078 526.009 322.521V369.444C526.009 393.887 506.195 413.702 481.752 413.702V413.702C457.309 413.702 437.495 393.887 437.495 369.444V322.521Z" fill="#015CE8"/>
<path fill-rule="evenodd" clip-rule="evenodd" d="M469.488 303.325C472.727 303.325 475.353 305.951 475.353 309.19V329.453C475.353 332.692 472.727 335.318 469.488 335.318C466.249 335.318 463.623 332.692 463.623 329.453V309.19C463.623 305.951 466.249 303.325 469.488 303.325Z" fill="black"/>
<path fill-rule="evenodd" clip-rule="evenodd" d="M492.95 303.325C496.189 303.325 498.815 305.951 498.815 309.19V329.453C498.815 332.692 496.189 335.318 492.95 335.318C489.71 335.318 487.084 332.692 487.084 329.453V309.19C487.084 305.951 489.71 303.325 492.95 303.325Z" fill="black"/>
<path fill-rule="evenodd" clip-rule="evenodd" d="M447.819 336.506C450.402 334.552 454.081 335.061 456.036 337.644C460.015 342.903 467.391 349.064 476.297 350.82C484.692 352.475 495.626 350.451 507.833 337.208C510.029 334.826 513.74 334.675 516.121 336.871C518.503 339.066 518.654 342.777 516.459 345.159C501.959 360.888 487.067 364.9 474.028 362.329C461.501 359.86 451.837 351.536 446.681 344.723C444.727 342.14 445.236 338.461 447.819 336.506Z" fill="black"/>
<path d="M807.305 225.877C813.574 202.479 799.689 178.429 776.291 172.16L751.218 165.441C727.82 159.172 703.77 173.057 697.501 196.455C694.776 206.623 695.858 216.915 699.874 225.817C691.945 231.519 685.862 239.891 683.137 250.06C676.868 273.458 690.753 297.507 714.151 303.777L739.224 310.495C762.622 316.765 786.672 302.879 792.941 279.482C795.666 269.313 794.584 259.021 790.569 250.119C798.497 244.417 804.58 236.045 807.305 225.877Z" fill="#06C16A"/>
<path fill-rule="evenodd" clip-rule="evenodd" d="M732.569 185.646C735.212 186.284 736.837 188.944 736.2 191.587L731.711 210.188C731.073 212.831 728.414 214.457 725.771 213.819C723.128 213.181 721.502 210.521 722.14 207.878L726.628 189.277C727.266 186.634 729.926 185.009 732.569 185.646Z" fill="black"/>
<path fill-rule="evenodd" clip-rule="evenodd" d="M751.17 190.135C753.813 190.773 755.438 193.433 754.801 196.076L750.312 214.677C749.674 217.32 747.015 218.946 744.371 218.308C741.728 217.67 740.103 215.01 740.741 212.367L745.229 193.766C745.867 191.123 748.527 189.498 751.17 190.135Z" fill="black"/>
<path fill-rule="evenodd" clip-rule="evenodd" d="M784.698 216.193C786.734 217.995 786.923 221.106 785.121 223.142C774.27 235.4 760.003 239.333 747.031 239.426C734.148 239.518 722.134 235.85 714.866 232.377C712.412 231.205 711.374 228.266 712.546 225.813C713.718 223.359 716.657 222.321 719.11 223.493C725.268 226.435 735.811 229.659 746.961 229.58C758.023 229.501 769.265 226.199 777.749 216.616C779.551 214.58 782.662 214.391 784.698 216.193Z" fill="black"/>
<path d="M822.033 59.6418C830.299 33.8404 816.084 6.22345 790.283 -2.04248L746.612 -16.0332C720.811 -24.2991 693.194 -10.0839 684.928 15.7175L668.009 68.5285C659.743 94.3298 673.958 121.947 699.759 130.213L743.43 144.203C769.231 152.469 796.848 138.254 805.114 112.453L822.033 59.6418Z" fill="#3A6878"/>
<path fill-rule="evenodd" clip-rule="evenodd" d="M727.394 44.4593C724.211 45.0654 722.123 48.1364 722.729 51.3186L726.995 73.7139C727.601 76.8961 730.672 78.9844 733.854 78.3782C737.036 77.7721 739.125 74.7011 738.519 71.5189L734.253 49.1236C733.647 45.9414 730.576 43.8531 727.394 44.4593Z" fill="black"/>
<path fill-rule="evenodd" clip-rule="evenodd" d="M704.999 48.7251C701.816 49.3312 699.728 52.4022 700.334 55.5844L704.6 77.9797C705.206 81.1619 708.277 83.2502 711.459 82.6441C714.641 82.0379 716.73 78.9669 716.124 75.7847L711.858 53.3894C711.252 50.2073 708.181 48.119 704.999 48.7251Z" fill="black"/>
<path fill-rule="evenodd" clip-rule="evenodd" d="M784.926 35.8414C781.696 35.5946 778.878 38.0128 778.631 41.2428C776.21 72.9102 762.618 87.8358 747.588 94.5026C731.983 101.425 713.598 99.9821 701.379 96.3247C698.276 95.3958 695.007 97.1585 694.078 100.262C693.149 103.365 694.912 106.634 698.015 107.563C711.924 111.726 733.371 113.642 752.345 105.226C771.895 96.5537 787.629 77.442 790.328 42.1368C790.575 38.9069 788.156 36.0883 784.926 35.8414Z" fill="black"/>
<path d="M676.172 265.591C682.609 260.947 691.704 263.905 694.177 271.447L706.142 307.931C706.906 310.261 708.381 312.293 710.36 313.741L741.347 336.413C747.753 341.099 747.75 350.663 741.342 355.346L710.341 377.999C708.361 379.446 706.884 381.477 706.119 383.806L694.133 420.283C691.655 427.823 682.558 430.776 676.124 426.128L645 403.645C643.012 402.209 640.624 401.432 638.172 401.424L599.777 401.296C591.84 401.269 586.221 393.531 588.653 385.975L600.418 349.427C601.17 347.093 601.17 344.581 600.42 342.247L588.677 305.691C586.25 298.134 591.873 290.399 599.811 290.377L638.206 290.273C640.658 290.266 643.046 289.491 645.035 288.056L676.172 265.591Z" fill="#FFF100"/>
<path fill-rule="evenodd" clip-rule="evenodd" d="M666.443 292.26C668.917 293.439 669.966 296.4 668.787 298.873L660.49 316.282C659.311 318.755 656.35 319.805 653.876 318.626C651.402 317.447 650.353 314.486 651.532 312.012L659.83 294.604C661.009 292.13 663.97 291.081 666.443 292.26Z" fill="black"/>
<path fill-rule="evenodd" clip-rule="evenodd" d="M683.852 300.558C686.325 301.737 687.375 304.698 686.196 307.172L677.898 324.58C676.719 327.054 673.758 328.103 671.284 326.924C668.811 325.745 667.761 322.784 668.94 320.311L677.238 302.902C678.417 300.429 681.378 299.379 683.852 300.558Z" fill="black"/>
<path fill-rule="evenodd" clip-rule="evenodd" d="M633.966 311.429C636.586 310.629 639.36 312.104 640.161 314.724C642.005 320.76 646.453 328.843 653.466 333.684C660.08 338.249 669.598 340.387 683.132 333.752C685.592 332.546 688.565 333.563 689.771 336.023C690.977 338.484 689.96 341.456 687.5 342.662C670.998 350.752 657.626 348.613 647.829 341.851C638.43 335.364 632.945 325.068 630.671 317.624C629.87 315.004 631.345 312.23 633.966 311.429Z" fill="black"/>
<path fill-rule="evenodd" clip-rule="evenodd" d="M559.787 11.2024C580.264 30.7157 581.125 63.2181 561.709 83.7984L532.705 114.541C494.454 155.086 430.452 153.138 394.489 112.354L374.639 132.155C354.611 152.134 322.259 152.013 302.38 131.885C282.5 111.756 282.621 79.2427 302.649 59.2636L329.087 32.8901C367.656 -5.58434 429.846 -2.84095 465.124 36.9085L487.553 13.1342C506.969 -7.44611 539.309 -8.311 559.787 11.2024Z" fill="#FB6358"/>
<path fill-rule="evenodd" clip-rule="evenodd" d="M469.989 52.6078C473.171 53.2139 475.259 56.285 474.653 59.4671L470.387 81.8624C469.781 85.0446 466.71 87.1329 463.528 86.5268C460.346 85.9206 458.257 82.8496 458.863 79.6674L463.129 57.2722C463.735 54.09 466.806 52.0017 469.989 52.6078Z" fill="black"/>
<path fill-rule="evenodd" clip-rule="evenodd" d="M492.384 56.8738C495.566 57.4799 497.655 60.5509 497.048 63.7331L492.783 86.1284C492.177 89.3106 489.105 91.3989 485.923 90.7927C482.741 90.1866 480.653 87.1156 481.259 83.9334L485.525 61.5381C486.131 58.3559 489.202 56.2676 492.384 56.8738Z" fill="black"/>
<path fill-rule="evenodd" clip-rule="evenodd" d="M412.456 43.9903C415.686 43.7434 418.504 46.1617 418.751 49.3917C421.172 81.0591 434.765 95.9846 449.794 102.651C465.399 109.574 483.784 108.131 496.003 104.474C499.106 103.545 502.375 105.307 503.304 108.411C504.233 111.514 502.47 114.783 499.367 115.712C485.458 119.875 464.011 121.791 445.037 113.375C425.487 104.703 409.753 85.5908 407.054 50.2857C406.808 47.0557 409.226 44.2372 412.456 43.9903Z" fill="black"/>
<path d="M54.5045 139.375H67.5461V113.292H94.8464V139.375H107.975V76.4277H94.8464V102.511H67.5461V76.4277H54.5045V139.375Z" fill="white"/>
<path d="M118.582 139.375H160.924V128.594H131.624V113.292H158.663V102.511H131.624V87.2087H160.837V76.4277H118.582V139.375Z" fill="white"/>
<path d="M171.009 139.375H211.177V128.594H184.051V76.4277H171.009V139.375Z" fill="white"/>
<path d="M219.611 139.375H259.779V128.594H232.652V76.4277H219.611V139.375Z" fill="white"/>
<path d="M323.335 107.901C323.335 87.3391 310.597 75.5582 293.948 75.5582C277.167 75.5582 264.474 87.3391 264.474 107.901C264.474 128.377 277.167 140.244 293.948 140.244C310.597 140.244 323.335 128.463 323.335 107.901ZM277.776 107.901C277.776 94.425 284.166 87.1652 293.948 87.1218C303.642 87.1652 310.076 94.425 310.032 107.901C310.076 121.334 303.642 128.637 293.948 128.681C284.166 128.637 277.776 121.334 277.776 107.901Z" fill="white"/>
<path d="M342.462 132.941H330.116L325.769 157.72H334.985L342.462 132.941Z" fill="white"/>
<path d="M68.5894 230.748H81.3701L93.4553 189.189H93.977L105.975 230.748H118.756L136.753 167.801H122.495L111.887 211.881H111.366L99.8022 167.801H87.5431L75.9796 211.794H75.4579L64.8508 167.801H50.592L68.5894 230.748Z" fill="white"/>
<path d="M143.448 230.748H185.79V219.967H156.489V204.665H183.529V193.884H156.489V178.582H185.703V167.801H143.448V230.748Z" fill="white"/>
<path d="M226.914 230.748L231.652 216.229H254.432L259.17 230.748H273.168L251.432 167.801H234.652L212.829 230.748H226.914ZM234.956 206.056L242.825 181.973H243.259L251.128 206.056H234.956Z" fill="white"/>
<path d="M280.297 230.748H293.339V208.404H303.294L315.336 230.748H329.768L316.379 206.274C323.552 203.187 327.508 196.927 327.508 188.32C327.508 175.843 319.292 167.801 304.989 167.801H280.297V230.748ZM293.339 197.797V178.495H302.555C310.293 178.539 314.075 181.973 314.032 188.32C314.075 194.623 310.293 197.797 302.555 197.797H293.339Z" fill="white"/>
<path d="M336.55 230.748H378.892V219.967H349.592V204.665H376.631V193.884H349.592V178.582H378.805V167.801H336.55V230.748Z" fill="white"/>
<path d="M54.5045 322.121H67.5461V296.038H93.2814V285.257H67.5461V269.955H95.9767V259.174H54.5045V322.121Z" fill="white"/>
<path d="M104.584 322.121H144.752V311.34H117.626V259.174H104.584V322.121Z" fill="white"/>
<path d="M166.227 259.174H153.186V322.121H166.227V259.174Z" fill="white"/>
<path d="M176.834 322.121H189.876V301.603H201.179C215.698 301.603 224.045 292.952 224.045 280.389C224.045 267.999 215.829 259.174 201.526 259.174H176.834V322.121ZM189.876 291.083V269.868H199.092C206.83 269.912 210.612 274.129 210.568 280.389C210.612 286.735 206.83 291.083 199.092 291.083H189.876Z" fill="white"/>
<path d="M247.346 259.174H233.956L235.087 303.255H246.215L247.346 259.174ZM233.435 315.601C233.348 319.644 236.652 322.904 240.738 322.904C244.607 322.904 247.954 319.644 247.954 315.601C247.954 311.601 244.607 308.341 240.738 308.384C236.652 308.341 233.348 311.601 233.435 315.601Z" fill="white"/>
</g>
</svg>
