<svg width="341" height="201" viewBox="0 0 341 201" fill="none" xmlns="http://www.w3.org/2000/svg">
<path d="M215.49 69.3881C216.76 64.7555 221.544 62.0289 226.177 63.2981L259.729 72.4904C264.362 73.7596 267.088 78.544 265.819 83.1766L256.627 116.729C255.357 121.362 250.573 124.088 245.941 122.819L212.388 113.627C207.756 112.357 205.029 107.573 206.298 102.94L215.49 69.3881Z" fill="#3680FF"/>
<path d="M224.223 103.343L230.535 105.072L233.249 95.166L242.65 97.7417L244.117 92.389L234.716 89.8134L235.963 85.2602L246.427 88.1271L247.894 82.7745L231.118 78.1783L224.223 103.343Z" fill="#272727"/>
<path d="M145.116 84.0275C146.033 81.6722 149.136 81.1548 150.768 83.085L156.153 89.4555C157.233 90.7331 159.093 91.0121 160.501 90.1077L167.519 85.5981C169.645 84.2317 172.459 85.6367 172.645 88.1575L173.258 96.4769C173.38 98.1454 174.721 99.4643 176.391 99.5599L184.72 100.037C187.243 100.181 188.694 102.972 187.362 105.12L182.968 112.211C182.087 113.633 182.396 115.488 183.691 116.547L190.149 121.828C192.105 123.428 191.639 126.539 189.299 127.494L181.576 130.648C180.027 131.28 179.187 132.963 179.612 134.581L181.732 142.649C182.375 145.094 180.169 147.336 177.714 146.733L169.612 144.745C167.988 144.347 166.319 145.214 165.712 146.773L162.685 154.546C161.768 156.902 158.665 157.419 157.033 155.489L151.648 149.118C150.568 147.841 148.708 147.562 147.3 148.466L140.282 152.976C138.156 154.342 135.342 152.937 135.156 150.416L134.543 142.097C134.421 140.428 133.08 139.11 131.41 139.014L123.081 138.537C120.558 138.393 119.107 135.602 120.439 133.454L124.833 126.363C125.714 124.941 125.405 123.086 124.11 122.027L117.652 116.746C115.696 115.146 116.162 112.035 118.502 111.08L126.225 107.926C127.774 107.294 128.614 105.611 128.189 103.993L126.069 95.9249C125.426 93.4803 127.632 91.2381 130.087 91.8405L138.189 93.8286C139.813 94.2273 141.482 93.3599 142.089 91.8009L145.116 84.0275Z" fill="#6040D2"/>
<path fill-rule="evenodd" clip-rule="evenodd" d="M159.191 99.0147C160.457 99.0437 161.459 100.093 161.43 101.358L161.225 110.263C161.196 111.528 160.147 112.53 158.882 112.501C157.616 112.472 156.614 111.423 156.643 110.158L156.848 101.253C156.877 99.9877 157.926 98.9856 159.191 99.0147Z" fill="black"/>
<path fill-rule="evenodd" clip-rule="evenodd" d="M168.096 99.2194C169.362 99.2485 170.364 100.298 170.335 101.563L170.13 110.468C170.101 111.733 169.052 112.735 167.786 112.706C166.521 112.677 165.519 111.628 165.548 110.362L165.753 101.458C165.782 100.192 166.831 99.1903 168.096 99.2194Z" fill="black"/>
<path fill-rule="evenodd" clip-rule="evenodd" d="M141.783 105.904C143.047 105.832 144.129 106.799 144.2 108.063C144.48 113.016 145.956 116.006 147.859 117.806C149.777 119.622 152.438 120.52 155.652 120.661C162.183 120.948 170.112 118.06 175.49 115.176C176.605 114.578 177.994 114.997 178.593 116.113C179.191 117.228 178.771 118.617 177.656 119.215C171.983 122.257 163.186 125.58 155.451 125.24C151.532 125.068 147.675 123.943 144.709 121.135C141.725 118.313 139.949 114.08 139.624 108.321C139.553 107.057 140.52 105.975 141.783 105.904Z" fill="black"/>
<path d="M170 150.89C170 140.457 178.457 132 188.89 132V132C199.323 132 207.78 140.457 207.78 150.89V170.918C207.78 181.35 199.323 189.808 188.89 189.808V189.808C178.457 189.808 170 181.35 170 170.918V150.89Z" fill="#015CE8"/>
<path fill-rule="evenodd" clip-rule="evenodd" d="M183.655 142.697C185.038 142.697 186.159 143.818 186.159 145.2V153.849C186.159 155.231 185.038 156.352 183.655 156.352C182.273 156.352 181.152 155.231 181.152 153.849V145.2C181.152 143.818 182.273 142.697 183.655 142.697Z" fill="black"/>
<path fill-rule="evenodd" clip-rule="evenodd" d="M193.669 142.697C195.052 142.697 196.173 143.818 196.173 145.2V153.849C196.173 155.231 195.052 156.352 193.669 156.352C192.287 156.352 191.166 155.231 191.166 153.849V145.2C191.166 143.818 192.287 142.697 193.669 142.697Z" fill="black"/>
<path fill-rule="evenodd" clip-rule="evenodd" d="M174.407 156.859C175.509 156.025 177.079 156.242 177.914 157.345C179.612 159.589 182.76 162.219 186.562 162.969C190.145 163.675 194.811 162.811 200.022 157.159C200.959 156.142 202.543 156.078 203.559 157.015C204.576 157.952 204.64 159.536 203.703 160.552C197.515 167.266 191.158 168.978 185.593 167.881C180.246 166.827 176.122 163.274 173.921 160.366C173.087 159.264 173.304 157.694 174.407 156.859Z" fill="black"/>
<path d="M327.842 109.64C330.518 99.6536 324.592 89.3886 314.605 86.7127L303.903 83.8452C293.917 81.1693 283.652 87.0958 280.976 97.0824C279.813 101.423 280.275 105.815 281.989 109.615C278.605 112.049 276.008 115.622 274.845 119.962C272.169 129.949 278.096 140.214 288.082 142.89L298.784 145.757C308.771 148.433 319.036 142.507 321.712 132.52C322.875 128.18 322.413 123.787 320.699 119.987C324.083 117.554 326.68 113.98 327.842 109.64Z" fill="#06C16A"/>
<path fill-rule="evenodd" clip-rule="evenodd" d="M295.944 92.4692C297.072 92.7414 297.766 93.8766 297.493 95.0047L295.578 102.944C295.305 104.072 294.17 104.766 293.042 104.494C291.914 104.222 291.22 103.086 291.492 101.958L293.408 94.0189C293.68 92.8908 294.816 92.1969 295.944 92.4692Z" fill="black"/>
<path fill-rule="evenodd" clip-rule="evenodd" d="M303.883 94.3851C305.011 94.6573 305.705 95.7925 305.433 96.9206L303.517 104.86C303.245 105.988 302.109 106.682 300.981 106.41C299.853 106.137 299.159 105.002 299.432 103.874L301.347 95.9349C301.62 94.8067 302.755 94.1129 303.883 94.3851Z" fill="black"/>
<path fill-rule="evenodd" clip-rule="evenodd" d="M318.194 105.507C319.062 106.276 319.143 107.604 318.374 108.473C313.743 113.705 307.653 115.384 302.116 115.423C296.617 115.462 291.49 113.897 288.388 112.415C287.34 111.914 286.897 110.66 287.397 109.613C287.898 108.566 289.152 108.123 290.199 108.623C292.828 109.879 297.328 111.255 302.086 111.221C306.808 111.187 311.607 109.778 315.227 105.688C315.997 104.819 317.325 104.738 318.194 105.507Z" fill="black"/>
<path d="M334.129 38.6878C337.657 27.6752 331.59 15.8877 320.577 12.3597L301.938 6.38815C290.925 2.86008 279.138 8.92744 275.609 19.94L268.388 42.4808C264.86 53.4934 270.927 65.2809 281.94 68.8089L300.579 74.7804C311.592 78.3085 323.38 72.2412 326.908 61.2286L334.129 38.6878Z" fill="#3A6878"/>
<path fill-rule="evenodd" clip-rule="evenodd" d="M293.735 32.2076C292.377 32.4663 291.485 33.7771 291.744 35.1353L293.565 44.6941C293.823 46.0523 295.134 46.9436 296.492 46.6849C297.851 46.4262 298.742 45.1154 298.483 43.7572L296.662 34.1984C296.404 32.8402 295.093 31.9489 293.735 32.2076Z" fill="black"/>
<path fill-rule="evenodd" clip-rule="evenodd" d="M284.176 34.0283C282.818 34.287 281.927 35.5978 282.185 36.956L284.006 46.5148C284.265 47.873 285.576 48.7643 286.934 48.5056C288.292 48.2469 289.183 46.9361 288.925 45.5779L287.104 36.0192C286.845 34.6609 285.534 33.7696 284.176 34.0283Z" fill="black"/>
<path fill-rule="evenodd" clip-rule="evenodd" d="M318.291 28.5293C316.912 28.4239 315.709 29.4561 315.604 30.8347C314.571 44.351 308.769 50.7216 302.354 53.5671C295.694 56.5217 287.847 55.9059 282.631 54.3448C281.307 53.9483 279.911 54.7007 279.515 56.0253C279.119 57.3499 279.871 58.745 281.195 59.1415C287.132 60.9184 296.286 61.7364 304.385 58.144C312.729 54.4426 319.445 46.2853 320.596 31.2163C320.702 29.8377 319.67 28.6347 318.291 28.5293Z" fill="black"/>
<path d="M271.873 126.591C274.62 124.609 278.502 125.872 279.557 129.091L284.664 144.663C284.99 145.657 285.62 146.525 286.465 147.143L299.691 156.819C302.425 158.82 302.424 162.902 299.688 164.9L286.456 174.569C285.611 175.187 284.981 176.054 284.654 177.048L279.538 192.617C278.481 195.835 274.598 197.095 271.852 195.112L258.568 185.515C257.719 184.902 256.7 184.571 255.653 184.567L239.265 184.513C235.878 184.502 233.479 181.198 234.517 177.974L239.539 162.374C239.86 161.378 239.86 160.306 239.54 159.309L234.528 143.707C233.492 140.481 235.892 137.18 239.28 137.17L255.667 137.126C256.714 137.123 257.734 136.792 258.583 136.18L271.873 126.591Z" fill="#FFF100"/>
<path fill-rule="evenodd" clip-rule="evenodd" d="M267.72 137.974C268.776 138.477 269.224 139.741 268.721 140.797L265.179 148.227C264.676 149.283 263.412 149.731 262.356 149.228C261.3 148.724 260.852 147.46 261.356 146.405L264.897 138.974C265.4 137.919 266.664 137.471 267.72 137.974Z" fill="black"/>
<path fill-rule="evenodd" clip-rule="evenodd" d="M275.15 141.516C276.206 142.019 276.654 143.283 276.151 144.339L272.609 151.769C272.106 152.825 270.842 153.273 269.786 152.77C268.73 152.266 268.282 151.002 268.786 149.947L272.327 142.516C272.831 141.461 274.094 141.013 275.15 141.516Z" fill="black"/>
<path fill-rule="evenodd" clip-rule="evenodd" d="M253.858 146.156C254.976 145.814 256.16 146.444 256.502 147.562C257.289 150.139 259.188 153.589 262.181 155.655C265.004 157.603 269.067 158.516 274.843 155.684C275.893 155.169 277.162 155.603 277.677 156.653C278.191 157.703 277.757 158.972 276.707 159.487C269.664 162.94 263.957 162.026 259.775 159.14C255.763 156.372 253.422 151.977 252.451 148.8C252.11 147.682 252.739 146.498 253.858 146.156Z" fill="black"/>
<path fill-rule="evenodd" clip-rule="evenodd" d="M222.197 18.0128C230.937 26.3415 231.304 40.2142 223.017 48.9983L210.638 62.12C194.311 79.4254 166.994 78.5937 151.644 61.1864L143.172 69.6381C134.623 78.1655 120.815 78.1138 112.33 69.5226C103.845 60.9313 103.897 47.0538 112.445 38.5264L123.729 27.2696C140.191 10.8479 166.736 12.0189 181.793 28.9847L191.366 18.8374C199.653 10.0533 213.456 9.68413 222.197 18.0128Z" fill="#FB6358"/>
<path fill-rule="evenodd" clip-rule="evenodd" d="M183.869 35.6855C185.227 35.9443 186.119 37.255 185.86 38.6132L184.039 48.172C183.78 49.5302 182.47 50.4216 181.111 50.1629C179.753 49.9041 178.862 48.5934 179.121 47.2352L180.941 37.6764C181.2 36.3182 182.511 35.4268 183.869 35.6855Z" fill="black"/>
<path fill-rule="evenodd" clip-rule="evenodd" d="M193.428 37.5063C194.786 37.7651 195.677 39.0758 195.419 40.434L193.598 49.9928C193.339 51.351 192.028 52.2424 190.67 51.9837C189.312 51.7249 188.421 50.4142 188.679 49.056L190.5 39.4972C190.759 38.139 192.07 37.2476 193.428 37.5063Z" fill="black"/>
<path fill-rule="evenodd" clip-rule="evenodd" d="M159.313 32.0074C160.691 31.902 161.894 32.9342 162 34.3128C163.033 47.8291 168.835 54.1997 175.249 57.0452C181.91 59.9998 189.757 59.384 194.973 57.8229C196.297 57.4264 197.692 58.1788 198.089 59.5034C198.485 60.828 197.733 62.2231 196.408 62.6196C190.472 64.3965 181.318 65.2145 173.219 61.6221C164.875 57.9206 158.159 49.7634 157.007 34.6944C156.902 33.3158 157.934 32.1128 159.313 32.0074Z" fill="black"/>
<path d="M2.26367 74H7.83008V62.8672H19.4824V74H25.0859V47.1328H19.4824V58.2656H7.83008V47.1328H2.26367V74Z" fill="white"/>
<path d="M29.6133 74H47.6855V69.3984H35.1797V62.8672H46.7207V58.2656H35.1797V51.7344H47.6484V47.1328H29.6133V74Z" fill="white"/>
<path d="M51.9902 74H69.1348V69.3984H57.5566V47.1328H51.9902V74Z" fill="white"/>
<path d="M72.7344 74H89.8789V69.3984H78.3008V47.1328H72.7344V74Z" fill="white"/>
<path d="M117.006 60.5664C117.006 51.79 111.569 46.7617 104.463 46.7617C97.3008 46.7617 91.8828 51.79 91.8828 60.5664C91.8828 69.3057 97.3008 74.3711 104.463 74.3711C111.569 74.3711 117.006 69.3428 117.006 60.5664ZM97.5605 60.5664C97.5605 54.8145 100.288 51.7158 104.463 51.6973C108.601 51.7158 111.347 54.8145 111.328 60.5664C111.347 66.2998 108.601 69.417 104.463 69.4355C100.288 69.417 97.5605 66.2998 97.5605 60.5664Z" fill="white"/>
<path d="M125.17 71.2539H119.9L118.045 81.8301H121.979L125.17 71.2539Z" fill="white"/>
<path d="M8.27539 113H13.7305L18.8887 95.2617H19.1113L24.2324 113H29.6875L37.3691 86.1328H31.2832L26.7559 104.947H26.5332L21.5977 86.1328H16.3652L11.4297 104.91H11.207L6.67969 86.1328H0.59375L8.27539 113Z" fill="white"/>
<path d="M40.2266 113H58.2988V108.398H45.793V101.867H57.334V97.2656H45.793V90.7344H58.2617V86.1328H40.2266V113Z" fill="white"/>
<path d="M75.8516 113L77.874 106.803H87.5967L89.6191 113H95.5938L86.3164 86.1328H79.1543L69.8398 113H75.8516ZM79.2842 102.461L82.6426 92.1816H82.8281L86.1865 102.461H79.2842Z" fill="white"/>
<path d="M98.6367 113H104.203V103.463H108.452L113.592 113H119.752L114.037 102.554C117.099 101.236 118.787 98.5645 118.787 94.8906C118.787 89.5654 115.28 86.1328 109.176 86.1328H98.6367V113ZM104.203 98.9355V90.6973H108.137C111.439 90.7158 113.054 92.1816 113.035 94.8906C113.054 97.5811 111.439 98.9355 108.137 98.9355H104.203Z" fill="white"/>
<path d="M122.646 113H140.719V108.398H128.213V101.867H139.754V97.2656H128.213V90.7344H140.682V86.1328H122.646V113Z" fill="white"/>
<path d="M2.26367 152H7.83008V140.867H18.8145V136.266H7.83008V129.734H19.9648V125.133H2.26367V152Z" fill="white"/>
<path d="M23.6387 152H40.7832V147.398H29.2051V125.133H23.6387V152Z" fill="white"/>
<path d="M49.9492 125.133H44.3828V152H49.9492V125.133Z" fill="white"/>
<path d="M54.4766 152H60.043V143.242H64.8672C71.0645 143.242 74.627 139.55 74.627 134.188C74.627 128.899 71.1201 125.133 65.0156 125.133H54.4766V152ZM60.043 138.752V129.697H63.9766C67.2793 129.716 68.8936 131.516 68.875 134.188C68.8936 136.896 67.2793 138.752 63.9766 138.752H60.043Z" fill="white"/>
<path d="M84.5723 125.133H78.8574L79.3398 143.947H84.0898L84.5723 125.133ZM78.6348 149.217C78.5977 150.942 80.0078 152.334 81.752 152.334C83.4033 152.334 84.832 150.942 84.832 149.217C84.832 147.51 83.4033 146.118 81.752 146.137C80.0078 146.118 78.5977 147.51 78.6348 149.217Z" fill="white"/>
</svg>
