<svg width="328" height="160" viewBox="0 0 328 160" fill="none" xmlns="http://www.w3.org/2000/svg">
<mask id="mask0_86_436" style="mask-type:alpha" maskUnits="userSpaceOnUse" x="0" y="0" width="328" height="160">
<rect width="328" height="160" rx="12" fill="#D9D9D9"/>
</mask>
<g mask="url(#mask0_86_436)">
<rect width="328" height="160" rx="12" fill="#121212"/>
<path d="M236.49 48.3881C237.76 43.7555 242.544 41.0289 247.177 42.2981L280.729 51.4904C285.362 52.7596 288.088 57.544 286.819 62.1766L277.627 95.7289C276.357 100.362 271.573 103.088 266.941 101.819L233.388 92.6266C228.756 91.3574 226.029 86.5731 227.298 81.9404L236.49 48.3881Z" fill="#3680FF"/>
<path d="M245.223 82.3426L251.535 84.0718L254.249 74.166L263.65 76.7417L265.117 71.3891L255.716 68.8134L256.963 64.2602L267.427 67.1271L268.894 61.7745L252.118 57.1783L245.223 82.3426Z" fill="#272727"/>
<path d="M166.116 63.0275C167.033 60.6722 170.136 60.1548 171.768 62.0851L177.153 68.4555C178.233 69.7331 180.093 70.0121 181.501 69.1077L188.519 64.5981C190.645 63.2317 193.459 64.6367 193.645 67.1575L194.258 75.477C194.38 77.1454 195.721 78.4643 197.391 78.5599L205.72 79.0367C208.243 79.1811 209.694 81.9719 208.362 84.1203L203.968 91.2111C203.087 92.6331 203.396 94.4881 204.691 95.5472L211.149 100.828C213.105 102.428 212.639 105.539 210.299 106.494L202.576 109.648C201.027 110.28 200.187 111.963 200.612 113.581L202.732 121.649C203.375 124.094 201.169 126.336 198.714 125.733L190.612 123.745C188.988 123.347 187.319 124.214 186.712 125.773L183.685 133.546C182.768 135.902 179.665 136.419 178.033 134.489L172.648 128.118C171.568 126.841 169.708 126.562 168.3 127.466L161.282 131.976C159.156 133.342 156.342 131.937 156.156 129.416L155.543 121.097C155.421 119.429 154.08 118.11 152.41 118.014L144.081 117.537C141.558 117.393 140.107 114.602 141.439 112.454L145.833 105.363C146.714 103.941 146.405 102.086 145.11 101.027L138.652 95.7457C136.696 94.1456 137.162 91.0351 139.502 90.0796L147.225 86.926C148.774 86.2936 149.614 84.611 149.189 82.993L147.069 74.9249C146.426 72.4803 148.632 70.2381 151.087 70.8405L159.189 72.8287C160.813 73.2274 162.482 72.3599 163.089 70.801L166.116 63.0275Z" fill="#6040D2"/>
<path fill-rule="evenodd" clip-rule="evenodd" d="M180.192 78.0147C181.457 78.0438 182.459 79.0931 182.43 80.3584L182.225 89.2631C182.196 90.5284 181.147 91.5305 179.882 91.5014C178.616 91.4724 177.614 90.4231 177.643 89.1578L177.848 80.2531C177.877 78.9878 178.926 77.9857 180.192 78.0147Z" fill="black"/>
<path fill-rule="evenodd" clip-rule="evenodd" d="M189.096 78.2194C190.361 78.2485 191.364 79.2978 191.334 80.563L191.13 89.4678C191.101 90.733 190.051 91.7352 188.786 91.7061C187.521 91.677 186.519 90.6278 186.548 89.3625L186.752 80.4578C186.782 79.1925 187.831 78.1903 189.096 78.2194Z" fill="black"/>
<path fill-rule="evenodd" clip-rule="evenodd" d="M162.783 84.9037C164.047 84.8324 165.129 85.7991 165.2 87.0627C165.48 92.0159 166.956 95.0063 168.859 96.8064C170.777 98.6219 173.438 99.52 176.652 99.6613C183.183 99.9484 191.112 97.0601 196.49 94.1761C197.605 93.578 198.994 93.9973 199.593 95.1126C200.191 96.228 199.771 97.617 198.656 98.2152C192.983 101.257 184.186 104.58 176.451 104.24C172.532 104.068 168.675 102.943 165.709 100.135C162.725 97.3127 160.949 93.0803 160.624 87.3206C160.553 86.057 161.52 84.9749 162.783 84.9037Z" fill="black"/>
<path d="M191 129.89C191 119.457 199.457 111 209.89 111V111C220.323 111 228.78 119.457 228.78 129.89V149.918C228.78 160.35 220.323 168.808 209.89 168.808V168.808C199.457 168.808 191 160.35 191 149.918V129.89Z" fill="#015CE8"/>
<path fill-rule="evenodd" clip-rule="evenodd" d="M204.655 121.697C206.038 121.697 207.159 122.818 207.159 124.2V132.849C207.159 134.231 206.038 135.352 204.655 135.352C203.273 135.352 202.152 134.231 202.152 132.849V124.2C202.152 122.818 203.273 121.697 204.655 121.697Z" fill="black"/>
<path fill-rule="evenodd" clip-rule="evenodd" d="M214.669 121.697C216.052 121.697 217.173 122.818 217.173 124.2V132.849C217.173 134.231 216.052 135.352 214.669 135.352C213.287 135.352 212.166 134.231 212.166 132.849V124.2C212.166 122.818 213.287 121.697 214.669 121.697Z" fill="black"/>
<path fill-rule="evenodd" clip-rule="evenodd" d="M195.407 135.859C196.509 135.025 198.079 135.242 198.914 136.345C200.612 138.589 203.761 141.219 207.562 141.969C211.145 142.675 215.812 141.811 221.022 136.159C221.959 135.142 223.543 135.078 224.559 136.015C225.576 136.952 225.641 138.536 224.703 139.552C218.515 146.266 212.159 147.978 206.593 146.881C201.246 145.827 197.122 142.274 194.921 139.366C194.087 138.264 194.304 136.694 195.407 135.859Z" fill="black"/>
<path d="M348.842 88.6402C351.518 78.6536 345.592 68.3886 335.605 65.7127L324.903 62.8452C314.917 60.1693 304.652 66.0958 301.976 76.0824C300.813 80.4226 301.275 84.8154 302.989 88.615C299.605 91.0486 297.008 94.6219 295.845 98.9621C293.169 108.949 299.096 119.214 309.082 121.89L319.784 124.757C329.771 127.433 340.036 121.507 342.712 111.52C343.875 107.18 343.413 102.787 341.699 98.9874C345.083 96.5538 347.68 92.9805 348.842 88.6402Z" fill="#06C16A"/>
<path fill-rule="evenodd" clip-rule="evenodd" d="M316.944 71.4692C318.072 71.7414 318.766 72.8766 318.493 74.0047L316.578 81.944C316.305 83.0721 315.17 83.766 314.042 83.4938C312.914 83.2215 312.22 82.0863 312.492 80.9582L314.408 73.0189C314.68 71.8908 315.816 71.1969 316.944 71.4692Z" fill="black"/>
<path fill-rule="evenodd" clip-rule="evenodd" d="M324.883 73.3851C326.011 73.6573 326.705 74.7925 326.433 75.9206L324.517 83.86C324.245 84.9881 323.109 85.6819 321.981 85.4097C320.853 85.1375 320.159 84.0023 320.432 82.8742L322.347 74.9349C322.62 73.8067 323.755 73.1129 324.883 73.3851Z" fill="black"/>
<path fill-rule="evenodd" clip-rule="evenodd" d="M339.194 84.507C340.062 85.2763 340.143 86.6042 339.374 87.4732C334.743 92.7049 328.653 94.3837 323.116 94.4233C317.617 94.4625 312.49 92.897 309.388 91.4148C308.34 90.9145 307.897 89.6601 308.397 88.6129C308.898 87.5658 310.152 87.1225 311.199 87.6228C313.828 88.8786 318.328 90.2548 323.086 90.2209C327.808 90.1871 332.607 88.7778 336.227 84.6876C336.997 83.8186 338.325 83.7378 339.194 84.507Z" fill="black"/>
<path d="M355.129 17.6878C358.657 6.67523 352.59 -5.11226 341.577 -8.64033L322.938 -14.6119C311.925 -18.1399 300.138 -12.0726 296.609 -1.06002L289.388 21.4808C285.86 32.4934 291.927 44.2809 302.94 47.8089L321.579 53.7804C332.592 57.3085 344.38 51.2412 347.908 40.2286L355.129 17.6878Z" fill="#3A6878"/>
<path fill-rule="evenodd" clip-rule="evenodd" d="M314.735 11.2076C313.377 11.4663 312.485 12.7771 312.744 14.1353L314.565 23.6941C314.823 25.0523 316.134 25.9436 317.492 25.6849C318.851 25.4262 319.742 24.1154 319.483 22.7572L317.662 13.1984C317.404 11.8402 316.093 10.9489 314.735 11.2076Z" fill="black"/>
<path fill-rule="evenodd" clip-rule="evenodd" d="M305.176 13.0283C303.818 13.287 302.927 14.5978 303.185 15.956L305.006 25.5148C305.265 26.873 306.576 27.7643 307.934 27.5056C309.292 27.2469 310.183 25.9361 309.925 24.5779L308.104 15.0192C307.845 13.6609 306.534 12.7696 305.176 13.0283Z" fill="black"/>
<path fill-rule="evenodd" clip-rule="evenodd" d="M339.291 7.52931C337.912 7.42394 336.709 8.45611 336.604 9.83473C335.571 23.351 329.769 29.7216 323.354 32.5671C316.694 35.5217 308.847 34.9059 303.631 33.3448C302.307 32.9483 300.911 33.7007 300.515 35.0253C300.119 36.3499 300.871 37.745 302.195 38.1415C308.132 39.9184 317.286 40.7364 325.385 37.144C333.729 33.4426 340.445 25.2853 341.596 10.2163C341.702 8.8377 340.67 7.63468 339.291 7.52931Z" fill="black"/>
<path d="M292.873 105.591C295.62 103.609 299.502 104.872 300.557 108.091L305.664 123.663C305.99 124.657 306.62 125.525 307.465 126.143L320.691 135.819C323.425 137.82 323.424 141.902 320.688 143.9L307.456 153.569C306.611 154.187 305.981 155.054 305.654 156.048L300.538 171.617C299.481 174.835 295.598 176.095 292.852 174.112L279.568 164.515C278.719 163.902 277.7 163.571 276.653 163.567L260.265 163.513C256.878 163.502 254.479 160.198 255.517 156.974L260.539 141.374C260.86 140.378 260.86 139.306 260.54 138.309L255.528 122.707C254.492 119.481 256.892 116.18 260.28 116.17L276.667 116.126C277.714 116.123 278.734 115.792 279.583 115.18L292.873 105.591Z" fill="#FFF100"/>
<path fill-rule="evenodd" clip-rule="evenodd" d="M288.72 116.974C289.776 117.477 290.224 118.741 289.721 119.797L286.179 127.227C285.676 128.283 284.412 128.731 283.356 128.228C282.3 127.724 281.852 126.46 282.356 125.405L285.897 117.974C286.4 116.919 287.664 116.471 288.72 116.974Z" fill="black"/>
<path fill-rule="evenodd" clip-rule="evenodd" d="M296.15 120.516C297.206 121.019 297.654 122.283 297.151 123.339L293.609 130.769C293.106 131.825 291.842 132.273 290.786 131.77C289.73 131.266 289.282 130.002 289.786 128.947L293.327 121.516C293.831 120.461 295.094 120.013 296.15 120.516Z" fill="black"/>
<path fill-rule="evenodd" clip-rule="evenodd" d="M274.858 125.156C275.976 124.814 277.16 125.444 277.502 126.562C278.289 129.138 280.188 132.588 283.181 134.655C286.004 136.603 290.067 137.516 295.843 134.684C296.893 134.169 298.162 134.603 298.677 135.653C299.191 136.703 298.757 137.972 297.707 138.487C290.664 141.94 284.957 141.026 280.775 138.14C276.763 135.372 274.422 130.977 273.451 127.8C273.11 126.682 273.739 125.498 274.858 125.156Z" fill="black"/>
<path fill-rule="evenodd" clip-rule="evenodd" d="M243.197 -2.98716C251.937 5.34155 252.304 19.2142 244.017 27.9983L231.638 41.12C215.311 58.4254 187.994 57.5937 172.644 40.1864L164.172 48.6381C155.623 57.1655 141.815 57.1138 133.33 48.5226C124.845 39.9313 124.897 26.0538 133.445 17.5264L144.729 6.26963C161.191 -10.1521 187.736 -8.98114 202.793 7.98474L212.366 -2.16263C220.653 -10.9467 234.456 -11.3159 243.197 -2.98716Z" fill="#FB6358"/>
<path fill-rule="evenodd" clip-rule="evenodd" d="M204.869 14.6855C206.227 14.9443 207.119 16.255 206.86 17.6132L205.039 27.172C204.78 28.5302 203.47 29.4216 202.111 29.1629C200.753 28.9041 199.862 27.5934 200.121 26.2352L201.941 16.6764C202.2 15.3182 203.511 14.4268 204.869 14.6855Z" fill="black"/>
<path fill-rule="evenodd" clip-rule="evenodd" d="M214.428 16.5063C215.786 16.7651 216.677 18.0758 216.419 19.434L214.598 28.9928C214.339 30.351 213.028 31.2424 211.67 30.9837C210.312 30.7249 209.421 29.4142 209.679 28.056L211.5 18.4972C211.759 17.139 213.07 16.2476 214.428 16.5063Z" fill="black"/>
<path fill-rule="evenodd" clip-rule="evenodd" d="M180.313 11.0074C181.691 10.902 182.894 11.9342 183 13.3128C184.033 26.8291 189.835 33.1997 196.249 36.0452C202.91 38.9998 210.757 38.384 215.973 36.8229C217.297 36.4264 218.692 37.1788 219.089 38.5034C219.485 39.828 218.733 41.2231 217.408 41.6196C211.472 43.3965 202.318 44.2145 194.219 40.6221C185.875 36.9206 179.159 28.7634 178.007 13.6944C177.902 12.3158 178.934 11.1128 180.313 11.0074Z" fill="black"/>
<path d="M23.2637 53H28.8301V41.8672H40.4824V53H46.0859V26.1328H40.4824V37.2656H28.8301V26.1328H23.2637V53Z" fill="white"/>
<path d="M50.6133 53H68.6855V48.3984H56.1797V41.8672H67.7207V37.2656H56.1797V30.7344H68.6484V26.1328H50.6133V53Z" fill="white"/>
<path d="M72.9902 53H90.1348V48.3984H78.5566V26.1328H72.9902V53Z" fill="white"/>
<path d="M93.7344 53H110.879V48.3984H99.3008V26.1328H93.7344V53Z" fill="white"/>
<path d="M138.006 39.5664C138.006 30.79 132.569 25.7617 125.463 25.7617C118.301 25.7617 112.883 30.79 112.883 39.5664C112.883 48.3057 118.301 53.3711 125.463 53.3711C132.569 53.3711 138.006 48.3428 138.006 39.5664ZM118.561 39.5664C118.561 33.8145 121.288 30.7158 125.463 30.6973C129.601 30.7158 132.347 33.8145 132.328 39.5664C132.347 45.2998 129.601 48.417 125.463 48.4355C121.288 48.417 118.561 45.2998 118.561 39.5664Z" fill="white"/>
<path d="M146.17 50.2539H140.9L139.045 60.8301H142.979L146.17 50.2539Z" fill="white"/>
<path d="M29.2754 92H34.7305L39.8887 74.2617H40.1113L45.2324 92H50.6875L58.3691 65.1328H52.2832L47.7559 83.9473H47.5332L42.5977 65.1328H37.3652L32.4297 83.9102H32.207L27.6797 65.1328H21.5938L29.2754 92Z" fill="white"/>
<path d="M61.2266 92H79.2988V87.3984H66.793V80.8672H78.334V76.2656H66.793V69.7344H79.2617V65.1328H61.2266V92Z" fill="white"/>
<path d="M96.8516 92L98.874 85.8027H108.597L110.619 92H116.594L107.316 65.1328H100.154L90.8398 92H96.8516ZM100.284 81.4609L103.643 71.1816H103.828L107.187 81.4609H100.284Z" fill="white"/>
<path d="M119.637 92H125.203V82.4629H129.452L134.592 92H140.752L135.037 81.5537C138.099 80.2363 139.787 77.5645 139.787 73.8906C139.787 68.5654 136.28 65.1328 130.176 65.1328H119.637V92ZM125.203 77.9355V69.6973H129.137C132.439 69.7158 134.054 71.1816 134.035 73.8906C134.054 76.5811 132.439 77.9355 129.137 77.9355H125.203Z" fill="white"/>
<path d="M143.646 92H161.719V87.3984H149.213V80.8672H160.754V76.2656H149.213V69.7344H161.682V65.1328H143.646V92Z" fill="white"/>
<path d="M23.2637 131H28.8301V119.867H39.8145V115.266H28.8301V108.734H40.9648V104.133H23.2637V131Z" fill="white"/>
<path d="M44.6387 131H61.7832V126.398H50.2051V104.133H44.6387V131Z" fill="white"/>
<path d="M70.9492 104.133H65.3828V131H70.9492V104.133Z" fill="white"/>
<path d="M75.4766 131H81.043V122.242H85.8672C92.0645 122.242 95.627 118.55 95.627 113.188C95.627 107.899 92.1201 104.133 86.0156 104.133H75.4766V131ZM81.043 117.752V108.697H84.9766C88.2793 108.716 89.8936 110.516 89.875 113.188C89.8936 115.896 88.2793 117.752 84.9766 117.752H81.043Z" fill="white"/>
<path d="M105.572 104.133H99.8574L100.34 122.947H105.09L105.572 104.133ZM99.6348 128.217C99.5977 129.942 101.008 131.334 102.752 131.334C104.403 131.334 105.832 129.942 105.832 128.217C105.832 126.51 104.403 125.118 102.752 125.137C101.008 125.118 99.5977 126.51 99.6348 128.217Z" fill="white"/>
</g>
</svg>
