<svg width="64" height="25" viewBox="0 0 64 25" fill="none" xmlns="http://www.w3.org/2000/svg">
<path d="M0 24.3226H6.04374V14.8751H15.0457V9.77008H6.04374V5.42754H16.0636V0.322571H0V24.3226Z" fill="white"/>
<path d="M18.4811 24.3226H33.9085V19.2176H24.5248V0.322571H18.4811V24.3226Z" fill="white"/>
<path d="M42.5606 0.322571H36.5169V24.3226H42.5606V0.322571Z" fill="white"/>
<path d="M45.6779 24.3226H51.7217V17.0961H55.2843C60.5328 17.1126 64 13.8806 64 8.74246C64 3.68721 60.6282 0.322571 55.4751 0.322571H45.6779V24.3226ZM51.7217 12.19V5.36124H54.0755C56.3499 5.37782 57.6859 6.65406 57.67 8.74246C57.6859 10.8474 56.3499 12.1734 54.0755 12.19H51.7217Z" fill="white"/>
</svg>
